<?xml version="1.0" encoding="iso-8859-1"?>
<!-- Generator: Adobe Illustrator 19.0.0, SVG Export Plug-In . SVG Version: 6.00 Build 0)  -->
<svg version="1.1" id="Capa_1" xmlns="http://www.w3.org/2000/svg" xmlns:xlink="http://www.w3.org/1999/xlink" x="0px" y="0px"
	 viewBox="0 0 64 64" style="enable-background:new 0 0 64 64;" xml:space="preserve">
<g>
	<rect x="9" y="58" width="14" height="2"/>
	<rect x="18" y="62" width="17" height="2"/>
	<rect x="25" y="58" width="22" height="2"/>
	<rect x="37" y="62" width="26" height="2"/>
	<rect y="62" width="16" height="2"/>
	<path d="M62.997,42.917c-0.018-0.209-0.101-0.408-0.237-0.568l-0.805-0.939l-0.958-11.493c-0.018-0.213-0.104-0.415-0.244-0.576
		l-4.344-4.965l0.585-5.266l-1.987-0.221l-0.383,3.447l-0.745-0.852l-1.107-3.099l0.123,0.062l3.906-7.813l5.839-4.866l-1.28-1.536
		l-6,5c-0.106,0.088-0.192,0.197-0.254,0.321l-3.202,6.404l-2.962-8.293c-0.135-0.377-0.482-0.638-0.882-0.662
		c-0.383-0.02-0.774,0.192-0.955,0.551l-0.512,1.023l-12.07-7.428c-0.395-0.243-0.904-0.183-1.231,0.145L25.21,9.375l-2.57-2.143
		c-0.248-0.207-0.581-0.282-0.896-0.199c-0.313,0.083-0.567,0.312-0.681,0.616L20.992,7.84C20.906,4.606,18.254,2,15,2
		c-0.5,0-1.002,0.067-1.501,0.201C12.017,0.795,10.047,0,8,0C3.589,0,0,3.589,0,8c0,0.552,0.448,1,1,1h19
		c0.253,0,0.477-0.102,0.653-0.256l-2.129,5.677C17.201,13.509,15.627,13,14,13c-4.411,0-8,3.589-8,8c0,0.552,0.448,1,1,1h8.178
		l-6.022,9.463c-0.06,0.095-0.104,0.199-0.13,0.308l-4,17c-0.1,0.423,0.086,0.863,0.459,1.086L12.39,54H0v2h19h36h8
		c0.28,0,0.546-0.117,0.736-0.323c0.189-0.205,0.284-0.481,0.261-0.76L62.997,42.917z M2.083,7C2.561,4.166,5.032,2,8,2
		c1.7,0,3.329,0.732,4.47,2.009c0.277,0.31,0.718,0.416,1.104,0.267C15.948,3.365,18.316,4.843,18.873,7H2.083z M22.442,9.67
		l4.918,4.098l1.28-1.536l-1.886-1.572l7.394-7.394l11.548,7.106l-2.591,5.181l1.789,0.895l2.952-5.904l4.212,11.793
		c0.042,0.118,0.106,0.228,0.189,0.322l2.076,2.373l-0.286,2.577l-5.653,7.268l-4.43-14.176c-0.119-0.379-0.451-0.653-0.847-0.696
		c-0.387-0.04-0.779,0.152-0.976,0.498l-2.891,5.058l-3.292-9.878c-0.119-0.357-0.428-0.617-0.8-0.672
		c-0.371-0.059-0.744,0.102-0.963,0.408l-5,7c-0.099,0.139-0.161,0.301-0.18,0.471l-0.384,3.451L23.661,22H26c0.552,0,1-0.448,1-1
		c0-3.309-2.691-6-6-6c-0.19,0-0.381,0.019-0.571,0.038L22.442,9.67z M14,15c1.7,0,3.329,0.732,4.47,2.009
		c0.277,0.309,0.718,0.416,1.104,0.267c2.374-0.912,4.742,0.566,5.299,2.724H8.083C8.561,17.166,11.032,15,14,15z M19.002,40.929
		L18.069,54h-1.792l-9.136-5.482l3.794-16.124L17.549,22h3.075l7.717,6.752l0.015-0.017l-0.977,8.789l-3.485-6.971
		c-0.183-0.367-0.572-0.59-0.98-0.549c-0.409,0.035-0.754,0.316-0.872,0.709L21.056,34H21v0.186l-1.958,6.527
		C19.021,40.783,19.008,40.855,19.002,40.929z M20.074,54l0.916-12.818L21.344,40H23v-2h-1.056l0.6-2H23v-1.519l0.233-0.778
		L25.382,38H25v2h1.382l0.724,1.447c0.198,0.396,0.636,0.618,1.07,0.537c0.436-0.078,0.769-0.434,0.818-0.874L29.117,40H31v-2
		h-1.661l0.222-2H31v-2h-1.216l0.222-2H31v-2h-0.772l0.222-2H31v-2h-0.327l0.292-2.631L33.372,20H35v-0.838L37.279,26H37v2h0.946
		l0.105,0.316c0.125,0.374,0.458,0.64,0.85,0.679c0.388,0.035,0.771-0.157,0.967-0.499L41,26.515V28h2v-2h-1.705l1.435-2.512
		L46.015,34H45v2h1.64l0.406,1.298c0.048,0.154,0.133,0.294,0.248,0.409l4.768,4.769L53.219,50H53v2h0.527l0.308,2H20.074z
		 M55.858,54l-1.869-12.152c-0.032-0.21-0.131-0.405-0.281-0.555l-4.376-4.376l6.458-8.303c0.113-0.146,0.184-0.32,0.204-0.503
		l0.115-1.038l2.922,3.339l0.7,8.405l-2.972-3.467l-1.519,1.302l5.79,6.754L61.913,54H55.858z"/>
	<rect x="41" y="30" width="2" height="2"/>
	<rect x="41" y="34" width="2" height="2"/>
	<rect x="41" y="38" width="2" height="2"/>
	<rect x="45" y="38" width="2" height="2"/>
	<rect x="41" y="42" width="2" height="2"/>
	<rect x="45" y="42" width="2" height="2"/>
	<rect x="49" y="42" width="2" height="2"/>
	<rect x="41" y="46" width="2" height="2"/>
	<rect x="45" y="46" width="2" height="2"/>
	<rect x="49" y="46" width="2" height="2"/>
	<rect x="41" y="50" width="2" height="2"/>
	<rect x="45" y="50" width="2" height="2"/>
	<rect x="49" y="50" width="2" height="2"/>
	<rect x="33" y="22" width="2" height="2"/>
	<rect x="33" y="26" width="2" height="2"/>
	<rect x="33" y="30" width="2" height="2"/>
	<rect x="37" y="30" width="2" height="2"/>
	<rect x="33" y="34" width="2" height="2"/>
	<rect x="37" y="34" width="2" height="2"/>
	<rect x="33" y="38" width="2" height="2"/>
	<rect x="37" y="38" width="2" height="2"/>
	<rect x="29" y="42" width="2" height="2"/>
	<rect x="33" y="42" width="2" height="2"/>
	<rect x="37" y="42" width="2" height="2"/>
	<rect x="29" y="46" width="2" height="2"/>
	<rect x="33" y="46" width="2" height="2"/>
	<rect x="37" y="46" width="2" height="2"/>
	<rect x="29" y="50" width="2" height="2"/>
	<rect x="33" y="50" width="2" height="2"/>
	<rect x="37" y="50" width="2" height="2"/>
	<rect x="21" y="42" width="2" height="2"/>
	<rect x="25" y="42" width="2" height="2"/>
	<rect x="21" y="46" width="2" height="2"/>
	<rect x="25" y="46" width="2" height="2"/>
	<rect x="21" y="50" width="2" height="2"/>
	<rect x="25" y="50" width="2" height="2"/>
	<rect x="49" y="58" width="2" height="2"/>
	<rect x="53" y="58" width="2" height="2"/>
	<rect x="57" y="58" width="2" height="2"/>
</g>
<g>
</g>
<g>
</g>
<g>
</g>
<g>
</g>
<g>
</g>
<g>
</g>
<g>
</g>
<g>
</g>
<g>
</g>
<g>
</g>
<g>
</g>
<g>
</g>
<g>
</g>
<g>
</g>
<g>
</g>
</svg>
