<?xml version="1.0" encoding="iso-8859-1"?>
<!-- Generator: Adobe Illustrator 16.0.0, SVG Export Plug-In . SVG Version: 6.00 Build 0)  -->
<!DOCTYPE svg PUBLIC "-//W3C//DTD SVG 1.1//EN" "http://www.w3.org/Graphics/SVG/1.1/DTD/svg11.dtd">
<svg version="1.1" id="Capa_1" xmlns="http://www.w3.org/2000/svg" xmlns:xlink="http://www.w3.org/1999/xlink" x="0px" y="0px"
	 width="465.135px" height="465.135px" viewBox="0 0 465.135 465.135" style="enable-background:new 0 0 465.135 465.135;"
	 xml:space="preserve">
<g>
	<path d="M406.136,163.829c0-41.168-28.696-75.554-67.147-84.471c-9.554-37.541-43.489-65.351-84.006-65.351
		c-11.096,0-21.672,2.162-31.42,5.958C208.535,7.502,189.243,0,168.194,0c-47.929,0-86.783,38.859-86.783,86.783
		c0,8.635,1.3,16.955,3.647,24.834c-16.067,15.757-26.059,37.678-26.059,61.957c0,47.929,38.853,86.782,86.783,86.782
		c2.237,0,4.438-0.119,6.623-0.306c19.633,30.435,71.426,125.625-4.466,185.052c-4.875,3.819-5.731,10.861-1.915,15.737
		c2.213,2.823,5.503,4.295,8.829,4.295c2.417,0,4.854-0.781,6.897-2.386c85.125-66.653,38.581-176.745,2.075-225.647
		c-0.208-0.284-0.459-0.504-0.684-0.756l-48.849-70.952l98.057,63.973v-81.248l24.938,41.565l0.695,0.985
		c2.438,2.999,15.598,18.004,35.101,19.309c14.413,0.954,28.902-5.799,42.933-19.834c2.591-2.596,6.919-6.927,8.689-6.999
		c0.121,0.093,0.236,0.172,0.331,0.247c-0.593,3.001-4.796,10.982-9.239,19.409c-1.968,3.743-4.235,7.923-6.702,12.473
		c-4.454,8.213-9.538,17.611-14.748,27.81c1.083,0.125,2.156,0.355,3.212,0.606c-33.077,54.281-62.085,148.434,13.938,207.96
		c2.058,1.606,4.487,2.383,6.9,2.383c3.333,0,6.626-1.477,8.834-4.293c3.812-4.878,2.96-11.92-1.923-15.734
		c-74.423-58.285-25.761-151.332-5.478-183.415C367.542,250.322,406.136,211.591,406.136,163.829z"/>
</g>
<g>
</g>
<g>
</g>
<g>
</g>
<g>
</g>
<g>
</g>
<g>
</g>
<g>
</g>
<g>
</g>
<g>
</g>
<g>
</g>
<g>
</g>
<g>
</g>
<g>
</g>
<g>
</g>
<g>
</g>
</svg>
