<?xml version="1.0" encoding="iso-8859-1"?>
<!-- Generator: Adobe Illustrator 19.0.0, SVG Export Plug-In . SVG Version: 6.00 Build 0)  -->
<svg version="1.1" id="Layer_1" xmlns="http://www.w3.org/2000/svg" xmlns:xlink="http://www.w3.org/1999/xlink" x="0px" y="0px"
	 viewBox="0 0 512 512" style="enable-background:new 0 0 512 512;" xml:space="preserve">
<g>
	<g>
		<path d="M480.451,284.103c-1.354-2.991-3.957-5.232-7.115-6.128c-3.161-0.896-6.553-0.351-9.272,1.484
			c-42.522,28.697-100.541,31.075-151.311,7.089l39.968-39.968c3.141-3.141,4.107-7.849,2.473-11.981
			c-1.635-4.131-5.575-6.898-10.017-7.039c-8.727-0.279-34.12-3.747-46.658-16.284c-16.725-16.725-14.176-42.629-14.153-42.842
			c0.545-4.71-1.951-9.25-6.221-11.312c-4.269-2.064-9.378-1.201-12.73,2.153l-39.967,39.967
			c-23.984-50.766-21.61-108.785,7.082-151.32c1.835-2.722,2.379-6.115,1.483-9.272s-3.138-5.761-6.129-7.115
			c-20.977-9.492-42.066-16.975-62.68-22.241c-5.959-1.523-12.031,2.074-13.556,8.039c-1.523,5.963,2.076,12.033,8.039,13.556
			c15.574,3.979,31.469,9.32,47.398,15.919c-13.361,24.012-20.388,51.557-20.428,80.438c-0.046,33.066,9.055,66.319,26.322,96.161
			c1.734,2.997,4.764,5.018,8.196,5.47c3.434,0.449,6.881-0.721,9.33-3.169l33.604-33.604c2.529,11.18,7.828,24.109,18.653,34.932
			c10.771,10.771,25.914,16.464,38.518,19.468l-34.99,34.99c-2.449,2.449-3.62,5.898-3.169,9.33c0.45,3.434,2.471,6.464,5.468,8.198
			c29.767,17.222,62.921,26.319,95.904,26.319c0.083,0,0.171,0,0.254,0c28.885-0.042,56.428-7.071,80.437-20.436
			c28.256,68.105,32.305,132.301,11.44,179.674c-62.599-40.022-128.083-54.992-178.851-40.857
			c-3.536-4.326-6.93-8.095-10.418-11.584c-43.409-43.409-105.221-59.891-162.666-44.829c15.057-57.45-1.425-119.264-44.833-162.669
			c-3.486-3.486-7.254-6.88-11.578-10.415c14.133-50.769-0.845-116.258-40.86-178.851c10.003-4.4,20.834-7.722,32.339-9.913
			c6.046-1.152,10.015-6.987,8.863-13.033c-1.152-6.046-6.994-10.017-13.033-8.863C37.445,7.02,20.674,12.976,5.734,21.269
			c-2.747,1.525-4.724,4.14-5.44,7.199c-0.718,3.06-0.11,6.279,1.673,8.868c42.837,62.172,59.26,130.084,42.86,177.237
			c-1.584,4.554-0.059,9.612,3.779,12.532c6.245,4.749,11.167,8.975,15.488,13.296c42.604,42.603,55.398,105.542,32.592,160.341
			c-1.734,4.169-0.783,8.97,2.409,12.164c3.192,3.19,7.996,4.143,12.164,2.407c54.795-22.809,117.727-10.018,160.335,32.588
			c4.323,4.323,8.547,9.247,13.299,15.494c2.92,3.838,7.978,5.363,12.532,3.779c47.148-16.404,115.059,0.018,177.232,42.855
			c1.877,1.293,4.085,1.967,6.323,1.967c0.85,0,1.703-0.097,2.544-0.294c3.06-0.716,5.673-2.694,7.199-5.44
			C522.324,449.341,518.58,368.369,480.451,284.103z"/>
	</g>
</g>
<g>
	<g>
		<path d="M104.358,0.142c-1.588-0.061-3.171-0.105-4.749-0.134c-6.14-0.143-11.234,4.783-11.346,10.938
			c-0.114,6.155,4.783,11.235,10.938,11.348c1.432,0.027,2.871,0.067,4.315,0.122c0.143,0.006,0.285,0.007,0.428,0.007
			c5.961,0,10.902-4.716,11.13-10.724C115.304,5.549,110.508,0.374,104.358,0.142z"/>
	</g>
</g>
<g>
</g>
<g>
</g>
<g>
</g>
<g>
</g>
<g>
</g>
<g>
</g>
<g>
</g>
<g>
</g>
<g>
</g>
<g>
</g>
<g>
</g>
<g>
</g>
<g>
</g>
<g>
</g>
<g>
</g>
</svg>
