<?xml version="1.0" encoding="iso-8859-1"?>
<!-- Generator: Adobe Illustrator 19.0.0, SVG Export Plug-In . SVG Version: 6.00 Build 0)  -->
<svg version="1.1" id="Layer_1" xmlns="http://www.w3.org/2000/svg" xmlns:xlink="http://www.w3.org/1999/xlink" x="0px" y="0px"
	 viewBox="0 0 511.999 511.999" style="enable-background:new 0 0 511.999 511.999;" xml:space="preserve">
<g>
	<g>
		<path d="M255.999,20.427c-31.535,0-57.191,25.656-57.191,57.191s25.656,57.191,57.191,57.191s57.191-25.656,57.191-57.191
			S287.534,20.427,255.999,20.427z M255.999,118.469c-22.526,0-40.851-18.325-40.851-40.851s18.326-40.851,40.851-40.851
			c22.526,0,40.851,18.325,40.851,40.851S278.525,118.469,255.999,118.469z"/>
	</g>
</g>
<g>
	<g>
		<path d="M476.049,117.048c-8.146,0-15.908,3.134-21.787,8.463c-5.879-5.329-13.641-8.463-21.787-8.463
			c-4.513,0-8.17,3.657-8.17,8.17s3.658,8.17,8.17,8.17c6.196,0,11.728,3.466,14.437,9.047c1.367,2.814,4.221,4.601,7.35,4.601
			s5.983-1.788,7.35-4.601c2.709-5.581,8.241-9.047,14.437-9.047c4.513,0,8.17-3.657,8.17-8.17S480.562,117.048,476.049,117.048z"/>
	</g>
</g>
<g>
	<g>
		<path d="M79.524,84.367c-8.146,0-15.908,3.134-21.787,8.463c-5.879-5.329-13.641-8.463-21.787-8.463
			c-4.513,0-8.17,3.657-8.17,8.17s3.658,8.17,8.17,8.17c6.196,0,11.728,3.466,14.437,9.047c1.367,2.814,4.221,4.601,7.35,4.601
			c3.129,0,5.983-1.788,7.35-4.601c2.709-5.581,8.241-9.047,14.437-9.047c4.513,0,8.17-3.657,8.17-8.17S84.037,84.367,79.524,84.367
			z"/>
	</g>
</g>
<g>
	<g>
		<path d="M178.655,130.695c-8.146,0-15.908,3.133-21.787,8.463c-5.879-5.33-13.641-8.463-21.787-8.463
			c-4.513,0-8.17,3.657-8.17,8.17c0,4.513,3.658,8.17,8.17,8.17c6.196,0,11.729,3.466,14.437,9.046
			c1.367,2.814,4.221,4.601,7.35,4.601s5.983-1.788,7.35-4.601c2.708-5.58,8.241-9.046,14.437-9.046c4.513,0,8.17-3.657,8.17-8.17
			C186.825,134.352,183.168,130.695,178.655,130.695z"/>
	</g>
</g>
<g>
	<g>
		<path d="M165.038,269.345h-16.34c-4.513,0-8.17,3.657-8.17,8.17s3.657,8.17,8.17,8.17h16.34c4.513,0,8.17-3.657,8.17-8.17
			S169.552,269.345,165.038,269.345z"/>
	</g>
</g>
<g>
	<g>
		<path d="M363.301,318.366h-16.34c-4.513,0-8.17,3.657-8.17,8.17c0,4.513,3.657,8.17,8.17,8.17h16.34c4.513,0,8.17-3.657,8.17-8.17
			C371.471,322.023,367.814,318.366,363.301,318.366z"/>
	</g>
</g>
<g>
	<g>
		<path d="M412.867,285.685h-16.34c-4.513,0-8.17,3.657-8.17,8.17s3.657,8.17,8.17,8.17h16.34c4.513,0,8.17-3.657,8.17-8.17
			S417.38,285.685,412.867,285.685z"/>
	</g>
</g>
<g>
	<g>
		<path d="M507.396,190.099c-4.061-1.972-8.948-0.279-10.918,3.78c-7.922,16.313-24.099,26.445-42.217,26.445
			c-18.118,0-34.294-10.133-42.217-26.445c-1.366-2.814-4.22-4.601-7.349-4.601c-3.129,0-5.983,1.788-7.349,4.601
			c-7.922,16.313-24.099,26.445-42.217,26.445c-18.118,0-34.294-10.133-42.217-26.445c-1.366-2.814-4.22-4.601-7.349-4.601
			c-3.129,0-5.983,1.788-7.349,4.601c-7.922,16.313-24.099,26.445-42.217,26.445s-34.294-10.133-42.217-26.445
			c-1.366-2.814-4.22-4.601-7.349-4.601c-3.129,0-5.983,1.788-7.349,4.601c-7.922,16.313-24.099,26.445-42.217,26.445
			s-34.294-10.133-42.217-26.445c-1.366-2.814-4.22-4.601-7.349-4.601c-3.129,0-5.983,1.788-7.349,4.601
			c-7.922,16.313-24.099,26.445-42.217,26.445c-18.118,0-34.294-10.133-42.217-26.445c-1.972-4.059-6.856-5.753-10.917-3.78
			c-4.059,1.971-5.751,6.859-3.78,10.918c10.517,21.656,32.856,35.648,56.914,35.648c19.409,0,37.698-9.106,49.566-23.996
			c11.867,14.89,30.157,23.996,49.566,23.996c19.409,0,37.698-9.106,49.566-23.996c11.867,14.89,30.157,23.996,49.566,23.996
			c19.409,0,37.698-9.106,49.566-23.996c11.867,14.89,30.157,23.996,49.566,23.996c19.409,0,37.698-9.106,49.566-23.996
			c11.867,14.89,30.157,23.996,49.566,23.996c24.058,0,46.399-13.993,56.914-35.648
			C513.148,196.956,511.455,192.068,507.396,190.099z"/>
	</g>
</g>
<g>
	<g>
		<path d="M503.828,383.727H255.999c-13.515,0-24.51-10.996-24.51-24.51c0-22.526-18.325-40.851-40.851-40.851H8.171
			c-4.513,0-8.17,3.657-8.17,8.17c0,4.513,3.658,8.17,8.17,8.17h182.467c13.515,0,24.51,10.996,24.51,24.51
			c0,22.526,18.325,40.851,40.851,40.851h247.828c4.513,0,8.17-3.657,8.17-8.17C511.998,387.384,508.341,383.727,503.828,383.727z"
			/>
	</g>
</g>
<g>
	<g>
		<path d="M40.852,361.94H8.171c-4.513,0-8.17,3.657-8.17,8.17s3.657,8.17,8.17,8.17h32.681c4.513,0,8.17-3.657,8.17-8.17
			S45.365,361.94,40.852,361.94z"/>
	</g>
</g>
<g>
	<g>
		<path d="M180.52,361.94H73.533c-4.513,0-8.17,3.657-8.17,8.17s3.657,8.17,8.17,8.17H180.52c4.513,0,8.17-3.657,8.17-8.17
			S185.033,361.94,180.52,361.94z"/>
	</g>
</g>
<g>
	<g>
		<path d="M503.828,427.301H255.999c-22.201,0-43.08-10.913-55.851-29.193c-2.585-3.698-7.676-4.603-11.377-2.019
			c-3.699,2.585-4.602,7.679-2.019,11.377c15.826,22.65,41.712,36.173,69.246,36.173h247.828c4.513,0,8.17-3.657,8.17-8.17
			C511.997,430.957,508.341,427.301,503.828,427.301z"/>
	</g>
</g>
<g>
	<g>
		<circle cx="81.702" cy="450.721" r="8.17"/>
	</g>
</g>
<g>
	<g>
		<circle cx="49.021" cy="483.402" r="8.17"/>
	</g>
</g>
<g>
	<g>
		<circle cx="430.295" cy="483.402" r="8.17"/>
	</g>
</g>
<g>
</g>
<g>
</g>
<g>
</g>
<g>
</g>
<g>
</g>
<g>
</g>
<g>
</g>
<g>
</g>
<g>
</g>
<g>
</g>
<g>
</g>
<g>
</g>
<g>
</g>
<g>
</g>
<g>
</g>
</svg>
