<?xml version="1.0" encoding="iso-8859-1"?>
<!-- Generator: Adobe Illustrator 17.1.0, SVG Export Plug-In . SVG Version: 6.00 Build 0)  -->
<!DOCTYPE svg PUBLIC "-//W3C//DTD SVG 1.1//EN" "http://www.w3.org/Graphics/SVG/1.1/DTD/svg11.dtd">
<svg version="1.1" id="Capa_1" xmlns="http://www.w3.org/2000/svg" xmlns:xlink="http://www.w3.org/1999/xlink" x="0px" y="0px"
	 viewBox="0 0 470 470" style="enable-background:new 0 0 470 470;" xml:space="preserve">
<g>
	<path d="M462.5,60.269H7.5c-4.143,0-7.5-3.358-7.5-7.5V7.5C0,3.358,3.357,0,7.5,0h455c4.143,0,7.5,3.358,7.5,7.5v45.269
		C470,56.911,466.643,60.269,462.5,60.269z M15,45.269h440V15H15V45.269z"/>
	<path d="M370.925,227.921c-5.925,0-11.494-2.307-15.684-6.496c-2.929-2.929-2.929-7.678,0.001-10.607
		c2.929-2.928,7.678-2.928,10.606,0c1.355,1.356,3.158,2.103,5.075,2.103c1.918,0,3.721-0.747,5.076-2.103
		c2.93-2.929,7.678-2.929,10.607,0c2.929,2.929,2.929,7.678,0,10.606C382.418,225.614,376.849,227.921,370.925,227.921z"/>
	<path d="M380.698,153.376c-5.925,0-11.494-2.307-15.684-6.496c-2.929-2.929-2.929-7.678,0.001-10.607
		c2.929-2.928,7.678-2.928,10.606,0c1.355,1.356,3.158,2.103,5.075,2.103c1.918,0,3.721-0.747,5.076-2.103
		c2.93-2.929,7.678-2.929,10.607,0c2.929,2.929,2.929,7.678,0,10.606C392.191,151.069,386.622,153.376,380.698,153.376z"/>
	<path d="M110.355,323.189c-5.925,0-11.494-2.307-15.684-6.496c-2.929-2.929-2.929-7.678,0.001-10.607
		c2.929-2.929,7.678-2.927,10.606,0c1.355,1.356,3.158,2.103,5.076,2.103s3.721-0.747,5.076-2.103c2.93-2.929,7.678-2.929,10.607,0
		c2.929,2.929,2.929,7.678,0,10.606C121.85,320.882,116.28,323.189,110.355,323.189z"/>
	<path d="M127.886,199.883c-5.925,0-11.494-2.307-15.684-6.496c-2.929-2.929-2.929-7.678,0.001-10.607
		c2.929-2.929,7.678-2.927,10.606,0c1.355,1.356,3.158,2.103,5.075,2.103c1.918,0,3.721-0.747,5.076-2.103
		c2.93-2.929,7.678-2.929,10.607,0c2.929,2.929,2.929,7.678,0,10.606C139.379,197.576,133.81,199.883,127.886,199.883z"/>
	<path d="M97.123,158.866c-5.925,0-11.494-2.307-15.684-6.496c-2.929-2.929-2.929-7.678,0-10.606c2.93-2.929,7.678-2.929,10.607,0
		c1.355,1.356,3.158,2.103,5.076,2.103c1.917,0,3.72-0.747,5.075-2.103c2.93-2.929,7.678-2.929,10.607,0
		c2.929,2.929,2.929,7.678,0,10.606C108.616,156.559,103.047,158.866,97.123,158.866z"/>
	<path d="M405.913,239.751c-4.143,0-7.5-3.358-7.5-7.5v-52.479c0-1.934,0.747-3.793,2.085-5.189
		c7.348-7.667,11.394-17.728,11.394-28.33v-29.668c0-4.142,3.357-7.5,7.5-7.5c14.512,0,26.317-11.806,26.317-26.317
		c0-4.142,3.357-7.5,7.5-7.5s7.5,3.358,7.5,7.5c0,20.222-14.603,37.098-33.817,40.635v22.85c0,13.451-4.765,26.264-13.479,36.411
		v49.587C413.413,236.393,410.056,239.751,405.913,239.751z"/>
	<path d="M370.924,403.478c-14.383,0-26.084-11.702-26.084-26.084v-61.605c-10.345-8.023-16.405-20.272-16.405-33.537v-99.587
		c-8.714-10.146-13.478-22.958-13.478-36.41v-22.168h-14.903v56.093c0,20.432-16.622,37.054-37.054,37.054
		s-37.054-16.622-37.054-37.054v-56.093h-48.344v12.5c0,4.142-3.357,7.5-7.5,7.5s-7.5-3.358-7.5-7.5v-20c0-4.142,3.357-7.5,7.5-7.5
		h63.344c4.143,0,7.5,3.358,7.5,7.5v63.593c0,12.161,9.894,22.054,22.054,22.054s22.054-9.893,22.054-22.054v-63.593
		c0-4.142,3.357-7.5,7.5-7.5h29.903c4.143,0,7.5,3.358,7.5,7.5v29.668c0,10.602,4.046,20.663,11.393,28.33
		c1.338,1.396,2.085,3.255,2.085,5.189v102.479c0,9.51,4.82,18.217,12.896,23.29c2.185,1.373,3.51,3.771,3.51,6.351v65.501
		c0,6.112,4.973,11.084,11.084,11.084c6.112,0,11.085-4.973,11.085-11.084v-65.501c0-2.58,1.325-4.978,3.51-6.351
		c8.074-5.073,12.895-13.78,12.895-23.29v-20c0-4.142,3.357-7.5,7.5-7.5s7.5,3.358,7.5,7.5v20c0,13.265-6.061,25.514-16.404,33.537
		v61.605C397.009,391.776,385.307,403.478,370.924,403.478z"/>
	<path d="M110.355,470c-16.768,0-30.409-13.642-30.409-30.409v-51.525c-12.737-9.547-20.223-24.386-20.223-40.478v-85.18
		c-10.737-12.267-16.615-27.855-16.615-44.232v-94.772c-19.215-3.537-33.817-20.413-33.817-40.635c0-4.142,3.357-7.5,7.5-7.5
		s7.5,3.358,7.5,7.5c0,14.511,11.806,26.317,26.317,26.317c4.143,0,7.5,3.358,7.5,7.5v101.59c0,13.521,5.16,26.352,14.53,36.13
		c1.338,1.396,2.085,3.255,2.085,5.189v88.093c0,12.328,6.248,23.613,16.713,30.188c2.185,1.373,3.51,3.771,3.51,6.351v55.464
		c0,8.497,6.912,15.409,15.409,15.409s15.409-6.913,15.409-15.409v-55.464c0-2.58,1.325-4.978,3.51-6.351
		c10.466-6.576,16.714-17.861,16.714-30.188v-88.093c0-1.934,0.747-3.792,2.085-5.189c9.369-9.778,14.529-22.61,14.529-36.13v-51.59
		c0-4.142,3.357-7.5,7.5-7.5s7.5,3.358,7.5,7.5v51.59c0,16.376-5.878,31.965-16.614,44.232v85.18
		c0,16.092-7.486,30.931-20.224,40.478v51.525C140.765,456.358,127.123,470,110.355,470z"/>
</g>
<g>
</g>
<g>
</g>
<g>
</g>
<g>
</g>
<g>
</g>
<g>
</g>
<g>
</g>
<g>
</g>
<g>
</g>
<g>
</g>
<g>
</g>
<g>
</g>
<g>
</g>
<g>
</g>
<g>
</g>
</svg>
