<?xml version="1.0" encoding="iso-8859-1"?>
<!-- Generator: Adobe Illustrator 19.0.0, SVG Export Plug-In . SVG Version: 6.00 Build 0)  -->
<svg version="1.1" id="Capa_1" xmlns="http://www.w3.org/2000/svg" xmlns:xlink="http://www.w3.org/1999/xlink" x="0px" y="0px"
	 viewBox="0 0 489.349 489.349" style="enable-background:new 0 0 489.349 489.349;" xml:space="preserve">
<g>
	<g>
		<path d="M424.674,338.449c4.2-6.2,5.2-14.6,1-21.9s-11.4-11.4-19.8-10.4c-71.3,7.1-134.7-31.2-165.3-84.3h227.7
			c11.4,0,20.8-9.4,20.8-20.8c0-11.4-9.4-20.8-20.8-20.8h-245c-13.4-50.3-3.4-105.2,28.5-147.8c4.2-6.2,5.2-14.6,1-21.9
			s-11.4-11.4-19.8-10.4c-29.1,3.1-57.2,11.4-83.2,26c-49.9,28.1-85.3,72.8-100.9,128c-14,52.8-7.4,107.8,17.8,157.3h-45.7
			c-11.4,0-20.8,9.4-20.8,20.8s9.4,20.8,20.8,20.8h75.4C145.474,416.149,309.674,481.449,424.674,338.449z M157.974,353.049h87.7
			c11.4,0,20.8-9.4,20.8-20.8s-9.4-20.8-20.8-20.8h-132c-3.8-5.2-6.9-10.5-9.4-15.6c-29.8-45.6-47.3-191,90.5-245.6
			c-18.3,40.8-22.8,86.5-13.4,130.1h-52.1c-11.4,0-20.8,9.4-20.8,20.8c0,11.4,9.4,20.8,20.8,20.8h65.6c2.8,6.3,5.9,12.6,9.3,18.7
			c33.3,58.3,91.6,96.8,157.1,106.1C283.674,400.549,208.174,385.949,157.974,353.049z"/>
		<path d="M468.374,447.749h-339.2c-11.4,0-20.8,9.4-20.8,20.8s9.4,20.8,20.8,20.8h339.2c11.4,0,20.8-9.4,20.8-20.8
			C489.174,457.049,479.874,447.749,468.374,447.749z"/>
		<path d="M305.074,42.949c31.2,14.6,54.1,46.8,58.3,81.2c1,10.4,9.4,17.9,19.8,17.7c14.2-0.3,21.9-11.4,20.8-22.9
			c-4.2-33.3,22.9-67.6,56.2-72.8c10.4-1,18.7-11.4,16.6-22.9c-1-10.4-11.4-18.7-22.9-16.6c-30.2,4.1-57.3,23.8-73.9,49.8
			c-14.6-20.8-34.3-38.5-57.2-49.9c-10.4-5.2-21.9-1-27.1,9.4C290.474,26.349,294.574,37.749,305.074,42.949z"/>
	</g>
</g>
<g>
</g>
<g>
</g>
<g>
</g>
<g>
</g>
<g>
</g>
<g>
</g>
<g>
</g>
<g>
</g>
<g>
</g>
<g>
</g>
<g>
</g>
<g>
</g>
<g>
</g>
<g>
</g>
<g>
</g>
</svg>
